<?xml version="1.0" encoding="UTF-8"?>
<svg xmlns="http://www.w3.org/2000/svg" xmlns:xlink="http://www.w3.org/1999/xlink" width="12px" height="12px" viewBox="0 0 12 11" version="1.1">
<g id="surface1">
<path style=" stroke:none;fill-rule:nonzero;fill:rgb(100%,100%,100%);fill-opacity:1;" d="M 11.25 0.0078125 C 11.070312 0.03125 10.878906 0.09375 10.636719 0.210938 C 10.21875 0.410156 9.734375 0.730469 9.117188 1.21875 C 8.25 1.910156 7.09375 2.976562 5.867188 4.21875 C 5.25 4.847656 4.566406 5.570312 4.074219 6.113281 C 3.992188 6.203125 3.925781 6.277344 3.925781 6.277344 C 3.921875 6.277344 3.863281 6.25 3.789062 6.210938 C 3.546875 6.09375 2.96875 5.824219 2.777344 5.742188 C 1.980469 5.398438 1.425781 5.21875 0.984375 5.160156 C 0.859375 5.144531 0.640625 5.152344 0.535156 5.171875 C 0.324219 5.210938 0.15625 5.328125 0.0703125 5.492188 C 0.0234375 5.582031 0.0078125 5.652344 0.00390625 5.765625 C 0.00390625 5.855469 0.0078125 5.863281 0.0351562 5.917969 C 0.0625 5.972656 0.0859375 5.996094 0.257812 6.144531 C 0.667969 6.5 1.117188 6.9375 1.449219 7.296875 C 2.191406 8.105469 2.972656 9.199219 3.867188 10.683594 C 4.023438 10.945312 4.085938 10.996094 4.246094 10.996094 C 4.308594 10.996094 4.335938 10.992188 4.371094 10.976562 C 4.476562 10.933594 4.519531 10.878906 4.59375 10.703125 C 4.71875 10.402344 4.96875 9.855469 5.125 9.53125 C 6.328125 7.015625 7.765625 4.882812 9.488281 3.0625 C 9.972656 2.550781 10.398438 2.144531 11.195312 1.425781 C 11.816406 0.863281 11.933594 0.734375 11.984375 0.542969 C 12.0625 0.253906 11.808594 0.015625 11.417969 0.00390625 C 11.359375 0.00390625 11.285156 0.00390625 11.25 0.0078125 Z M 11.25 0.0078125 "/>
</g>
</svg>
